<svg width="14" height="18" viewBox="0 0 14 18" fill="none" xmlns="http://www.w3.org/2000/svg">
<path d="M12.4444 4.66667C12.2382 4.66667 12.0403 4.74861 11.8945 4.89447C11.7486 5.04033 11.6667 5.23817 11.6667 5.44444V14.1486C11.6444 14.5419 11.4675 14.9104 11.1747 15.174C10.8819 15.4375 10.4968 15.5747 10.1033 15.5556H3.89667C3.50319 15.5747 3.1181 15.4375 2.82528 15.174C2.53247 14.9104 2.35565 14.5419 2.33333 14.1486V5.44444C2.33333 5.23817 2.25139 5.04033 2.10553 4.89447C1.95967 4.74861 1.76184 4.66667 1.55556 4.66667C1.34928 4.66667 1.15145 4.74861 1.00558 4.89447C0.859722 5.04033 0.777778 5.23817 0.777778 5.44444V14.1486C0.799979 14.9545 1.14068 15.7188 1.72525 16.2741C2.30983 16.8294 3.09063 17.1303 3.89667 17.1111H10.1033C10.9094 17.1303 11.6902 16.8294 12.2747 16.2741C12.8593 15.7188 13.2 14.9545 13.2222 14.1486V5.44444C13.2222 5.23817 13.1403 5.04033 12.9944 4.89447C12.8486 4.74861 12.6507 4.66667 12.4444 4.66667ZM13.2222 2.33333H10.1111V0.777778C10.1111 0.571498 10.0292 0.373667 9.88331 0.227806C9.73744 0.0819442 9.53961 0 9.33333 0H4.66667C4.46039 0 4.26256 0.0819442 4.11669 0.227806C3.97083 0.373667 3.88889 0.571498 3.88889 0.777778V2.33333H0.777778C0.571498 2.33333 0.373667 2.41528 0.227806 2.56114C0.0819442 2.707 0 2.90483 0 3.11111C0 3.31739 0.0819442 3.51522 0.227806 3.66108C0.373667 3.80694 0.571498 3.88889 0.777778 3.88889H13.2222C13.4285 3.88889 13.6263 3.80694 13.7722 3.66108C13.9181 3.51522 14 3.31739 14 3.11111C14 2.90483 13.9181 2.707 13.7722 2.56114C13.6263 2.41528 13.4285 2.33333 13.2222 2.33333ZM5.44444 2.33333V1.55556H8.55556V2.33333H5.44444Z" fill="#E13D3D"/>
<path d="M6.22224 12.4444V7C6.22224 6.79372 6.1403 6.59589 5.99444 6.45003C5.84857 6.30417 5.65074 6.22222 5.44446 6.22222C5.23819 6.22222 5.04035 6.30417 4.89449 6.45003C4.74863 6.59589 4.66669 6.79372 4.66669 7V12.4444C4.66669 12.6507 4.74863 12.8486 4.89449 12.9944C5.04035 13.1403 5.23819 13.2222 5.44446 13.2222C5.65074 13.2222 5.84857 13.1403 5.99444 12.9944C6.1403 12.8486 6.22224 12.6507 6.22224 12.4444ZM9.33335 12.4444V7C9.33335 6.79372 9.25141 6.59589 9.10555 6.45003C8.95969 6.30417 8.76186 6.22222 8.55558 6.22222C8.3493 6.22222 8.15147 6.30417 8.0056 6.45003C7.85974 6.59589 7.7778 6.79372 7.7778 7V12.4444C7.7778 12.6507 7.85974 12.8486 8.0056 12.9944C8.15147 13.1403 8.3493 13.2222 8.55558 13.2222C8.76186 13.2222 8.95969 13.1403 9.10555 12.9944C9.25141 12.8486 9.33335 12.6507 9.33335 12.4444Z" fill="#E13D3D"/>
</svg>
