<svg width="13" height="12" viewBox="0 0 13 12" fill="none" xmlns="http://www.w3.org/2000/svg">
<path d="M11.8286 4.44305C11.7528 4.20858 11.5447 4.04278 11.2982 4.02007L7.95129 3.71657L6.62786 0.624698C6.58033 0.51404 6.50128 0.419747 6.40054 0.353515C6.2998 0.287283 6.1818 0.252027 6.06117 0.252121C5.81414 0.252121 5.59188 0.398803 5.4944 0.625714L4.17107 3.71711L0.823556 4.02054C0.703424 4.03126 0.589113 4.07704 0.494882 4.15217C0.400652 4.22731 0.330674 4.32848 0.293678 4.44305C0.256323 4.55762 0.253501 4.68061 0.285563 4.79676C0.317625 4.91291 0.383159 5.01711 0.474029 5.09642L3.0042 7.31061L2.25805 10.59C2.23128 10.7077 2.23975 10.8307 2.28243 10.9436C2.3251 11.0565 2.40009 11.1545 2.49807 11.2252C2.60257 11.302 2.72894 11.3433 2.85868 11.3432C2.9683 11.3432 3.07743 11.314 3.17491 11.2555L6.06114 9.53288L8.94683 11.255C9.05017 11.317 9.1695 11.3473 9.28995 11.3421C9.41039 11.3369 9.52665 11.2964 9.62424 11.2258C9.7222 11.155 9.79717 11.057 9.83982 10.9441C9.88247 10.8312 9.89093 10.7082 9.86414 10.5905L9.11814 7.31113L11.6483 5.09684C11.7392 5.01746 11.8047 4.91318 11.8368 4.79695C11.8688 4.68071 11.8659 4.55765 11.8285 4.44303L11.8286 4.44305Z" fill="#E7E61A"/>
<path d="M2.71382 11.5948C2.57809 11.5948 2.44583 11.5519 2.336 11.4723C2.12634 11.3211 2.02839 11.0604 2.08545 10.8084L2.86534 7.38021L0.220473 5.06514C0.125375 4.98229 0.0567734 4.87337 0.0231969 4.75192C-0.0103795 4.63047 -0.00744979 4.50185 0.031622 4.38205C0.0704608 4.26225 0.143661 4.15646 0.242153 4.07779C0.340646 3.99911 0.460102 3.951 0.585721 3.93942L4.08572 3.62231L5.46871 0.39078C5.57079 0.153353 5.80309 3.05176e-05 6.06124 3.05176e-05C6.3194 3.05176e-05 6.55172 0.153353 6.65375 0.390236L8.03674 3.62234L11.5362 3.9394C11.7939 3.96256 12.011 4.13658 12.0908 4.38157C12.1707 4.62703 12.0969 4.8953 11.9019 5.06469L9.2576 7.3792L10.0375 10.8073C10.0946 11.0594 9.9966 11.3201 9.78703 11.4713C9.57836 11.622 9.30005 11.6346 9.07928 11.5025L6.06124 9.70276L3.04367 11.5036C2.94407 11.5633 2.83003 11.5948 2.71382 11.5948ZM6.06122 8.92745C6.17591 8.92745 6.28947 8.95817 6.39159 9.01864L9.23946 10.7187L8.50343 7.48249C8.4776 7.36939 8.48294 7.25141 8.51888 7.14109C8.55481 7.03076 8.62 6.93221 8.70753 6.85588L11.2049 4.66941L7.90084 4.36995C7.78465 4.35973 7.67345 4.31809 7.57919 4.24952C7.48494 4.18095 7.41119 4.08803 7.36589 3.98076L6.06122 0.931188L4.75546 3.98121C4.66304 4.19951 4.458 4.34823 4.22058 4.36947L0.91711 4.66891L3.41437 6.85531C3.59323 7.01114 3.67101 7.25161 3.61847 7.48249L2.88253 10.7186L5.7304 9.01862C5.83287 8.95815 5.94653 8.92745 6.06122 8.92745Z" fill="#E7E61A"/>
</svg>
