<svg width="13" height="12" viewBox="0 0 13 12" fill="none" xmlns="http://www.w3.org/2000/svg">
<path d="M2.71382 11.5947C2.57809 11.5947 2.44583 11.5518 2.336 11.4722C2.12634 11.321 2.02839 11.0603 2.08545 10.8083L2.86534 7.38018L0.220473 5.06511C0.125375 4.98226 0.0567734 4.87334 0.0231969 4.75189C-0.0103795 4.63044 -0.00744979 4.50182 0.031622 4.38201C0.0704608 4.26222 0.143661 4.15643 0.242153 4.07775C0.340646 3.99908 0.460102 3.95097 0.585721 3.93939L4.08572 3.62228L5.46871 0.390749C5.57079 0.153322 5.80309 0 6.06124 0C6.3194 0 6.55172 0.153322 6.65375 0.390206L8.03674 3.6223L11.5362 3.93937C11.7939 3.96253 12.011 4.13655 12.0908 4.38154C12.1707 4.627 12.0969 4.89527 11.9019 5.06466L9.2576 7.37917L10.0375 10.8073C10.0946 11.0594 9.9966 11.32 9.78703 11.4712C9.57836 11.622 9.30005 11.6346 9.07928 11.5025L6.06124 9.70273L3.04367 11.5035C2.94407 11.5633 2.83003 11.5948 2.71382 11.5947ZM6.06122 8.92742C6.17591 8.92742 6.28947 8.95814 6.39159 9.01861L9.23946 10.7186L8.50343 7.48246C8.4776 7.36935 8.48294 7.25138 8.51888 7.14106C8.55481 7.03073 8.62 6.93218 8.70753 6.85585L11.2049 4.66938L7.90084 4.36992C7.78465 4.3597 7.67345 4.31806 7.57919 4.24949C7.48494 4.18092 7.41119 4.088 7.36589 3.98073L6.06122 0.931157L4.75546 3.98117C4.66304 4.19948 4.458 4.3482 4.22058 4.36944L0.91711 4.66888L3.41437 6.85528C3.59323 7.01111 3.67101 7.25158 3.61847 7.48246L2.88253 10.7186L5.7304 9.01859C5.83287 8.95812 5.94653 8.92742 6.06122 8.92742Z" fill="#E7E61A"/>
</svg>
