<svg>
  <symbol viewBox="0 0 16 14" id="arrow" xmlns="http://www.w3.org/2000/svg">
    <path d="M0.255741 7.62165L6.03391 13.3999C6.19885 13.5649 6.41868 13.6554 6.65309 13.6554C6.88775 13.6554 7.10746 13.5648 7.2724 13.3999L7.79701 12.8752C7.96182 12.7105 8.05262 12.4906 8.05262 12.256C8.05262 12.0216 7.96182 11.7942 7.79701 11.6296L4.42611 8.25124L15.1356 8.25124C15.6185 8.25124 16 7.87323 16 7.39024L16 6.64839C16 6.16541 15.6185 5.74928 15.1356 5.74928L4.38787 5.74928L7.79688 2.3521C7.96169 2.18716 8.05249 1.97318 8.05249 1.73864C8.05249 1.50437 7.96169 1.28727 7.79688 1.12245L7.27227 0.599402C7.10733 0.43446 6.88762 0.344576 6.65295 0.344576C6.41855 0.344576 6.19872 0.435631 6.03377 0.600573L0.255611 6.37874C0.090279 6.5442 -0.000647194 6.76508 4.18652e-06 6.99987C-0.000515545 7.23545 0.090279 7.45645 0.255741 7.62165Z" fill="white"/>
  </symbol>
</svg>